<?xml version="1.0" standalone="no"?><!DOCTYPE svg PUBLIC "-//W3C//DTD SVG 1.1//EN" "http://www.w3.org/Graphics/SVG/1.1/DTD/svg11.dtd"><svg t="1718861079336" class="icon" viewBox="0 0 1283 1024" version="1.1" xmlns="http://www.w3.org/2000/svg" p-id="21047" xmlns:xlink="http://www.w3.org/1999/xlink" width="250.5859375" height="200"><path d="M438.932984 0.00845m58.158743 0l727.729917 0q58.158743 0 58.158743 58.158744l0 131.229985q0 58.158743-58.158743 58.158743l-727.729917 0q-58.158743 0-58.158743-58.158743l0-131.229985q0-58.158743 58.158743-58.158744Z" fill="#5E5C5C" p-id="21048"></path><path d="M1225.318727 388.230489H695.925038A58.158743 58.158743 0 0 0 637.766294 447.383399v28.333747H210.77176V248.550089h127.750402A58.158743 58.158743 0 0 0 397.675072 189.397179V58.167194A58.158743 58.158743 0 0 0 338.522162 0.00845H58.167194A58.158743 58.158743 0 0 0 0.00845 58.167194v131.229985A58.158743 58.158743 0 0 0 58.167194 248.550089h78.042074v651.676175a37.281246 37.281246 0 0 0 37.281246 37.281246h464.27578v28.333747A58.158743 58.158743 0 0 0 695.925038 1024h529.393689a58.158743 58.158743 0 0 0 58.158743-58.158743v-131.229985a58.158743 58.158743 0 0 0-58.158743-58.158744H695.925038a58.158743 58.158743 0 0 0-58.158744 58.158744v28.333746H210.77176v-313.659547h426.994534v28.333747A58.158743 58.158743 0 0 0 695.925038 635.777961h529.393689a58.158743 58.158743 0 0 0 58.158743-58.158743V447.383399a58.158743 58.158743 0 0 0-58.158743-59.15291z" fill="#5E5C5C" p-id="21049"></path></svg>