<?xml version="1.0" standalone="no"?><!DOCTYPE svg PUBLIC "-//W3C//DTD SVG 1.1//EN" "http://www.w3.org/Graphics/SVG/1.1/DTD/svg11.dtd"><svg t="1718860941102" class="icon" viewBox="0 0 1024 1024" version="1.1" xmlns="http://www.w3.org/2000/svg" p-id="16405" xmlns:xlink="http://www.w3.org/1999/xlink" width="200" height="200"><path d="M993.6 483.2h-59.2c-16-209.6-184-377.6-393.6-392v-48c0-16-12.8-28.8-28.8-28.8s-28.8 12.8-28.8 28.8v46.4C273.6 105.6 105.6 273.6 91.2 483.2H30.4c-16 0-28.8 12.8-28.8 28.8s12.8 28.8 28.8 28.8h59.2C104 750.4 272 918.4 481.6 932.8v46.4c0 16 12.8 28.8 28.8 28.8s28.8-12.8 28.8-28.8v-46.4c209.6-14.4 377.6-182.4 392-392h59.2c16 0 28.8-12.8 28.8-28.8 3.2-16-9.6-28.8-25.6-28.8zM540.8 875.2V688c0-16-12.8-28.8-28.8-28.8s-28.8 12.8-28.8 28.8v185.6c-177.6-14.4-320-156.8-334.4-334.4h172.8c16 0 28.8-12.8 28.8-28.8s-12.8-28.8-28.8-28.8H148.8c14.4-177.6 156.8-320 334.4-334.4V336c0 16 12.8 28.8 28.8 28.8s28.8-12.8 28.8-28.8V148.8c177.6 14.4 320 156.8 334.4 334.4H702.4c-16 0-28.8 12.8-28.8 28.8s12.8 28.8 28.8 28.8h172.8c-14.4 177.6-156.8 320-334.4 334.4z" fill="#666666" p-id="16406"></path></svg>