<?xml version="1.0" standalone="no"?><!DOCTYPE svg PUBLIC "-//W3C//DTD SVG 1.1//EN" "http://www.w3.org/Graphics/SVG/1.1/DTD/svg11.dtd"><svg t="1718860960887" class="icon" viewBox="0 0 1024 1024" version="1.1" xmlns="http://www.w3.org/2000/svg" p-id="16548" xmlns:xlink="http://www.w3.org/1999/xlink" width="200" height="200"><path d="M995.84 483.584h-58.24A427.2 427.2 0 0 0 540.416 86.4V28.16a28.16 28.16 0 0 0-28.16-28.16h-0.512a28.16 28.16 0 0 0-28.16 28.16v58.24A427.2 427.2 0 0 0 86.4 483.584H28.16a28.16 28.16 0 0 0-28.16 28.16v0.512c0 15.616 12.608 28.16 28.16 28.16h58.24a427.2 427.2 0 0 0 397.184 397.184v58.24c0 15.552 12.544 28.16 28.16 28.16h0.512a28.16 28.16 0 0 0 28.16-28.16v-58.24a427.2 427.2 0 0 0 397.184-397.184h58.24a28.16 28.16 0 0 0 28.16-28.16v-0.512a28.16 28.16 0 0 0-28.16-28.16z m-143.808 0h-49.92a291.968 291.968 0 0 0-261.696-261.76v-49.92a341.76 341.76 0 0 1 311.68 311.68z m-183.872 56.832h91.008a249.216 249.216 0 0 1-218.752 218.752V668.16a28.16 28.16 0 0 0-28.16-28.16h-0.512a28.16 28.16 0 0 0-28.16 28.16v91.008a249.216 249.216 0 0 1-218.752-218.752H355.84a28.16 28.16 0 0 0 28.16-28.16v-0.512a28.16 28.16 0 0 0-28.16-28.16H264.832a249.216 249.216 0 0 1 218.752-218.752V355.84c0 15.552 12.544 28.16 28.16 28.16h0.512a28.16 28.16 0 0 0 28.16-28.16V264.832a249.216 249.216 0 0 1 218.752 218.752H668.16a28.16 28.16 0 0 0-28.16 28.16v0.512c0 15.616 12.608 28.16 28.16 28.16zM483.584 171.968v49.92a291.968 291.968 0 0 0-261.76 261.696h-49.92a341.76 341.76 0 0 1 311.68-311.68z m-311.68 368.448h49.984a291.968 291.968 0 0 0 261.696 261.76v49.92a341.76 341.76 0 0 1-311.68-311.68z m368.512 311.68v-49.984a291.968 291.968 0 0 0 261.76-261.696h49.92a341.76 341.76 0 0 1-311.68 311.68z" p-id="16549"></path></svg>